<?xml version="1.0" encoding="utf-8"?>
<!-- Generator: Adobe Illustrator 17.0.0, SVG Export Plug-In . SVG Version: 6.00 Build 0)  -->
<!DOCTYPE svg PUBLIC "-//W3C//DTD SVG 1.1//EN" "http://www.w3.org/Graphics/SVG/1.1/DTD/svg11.dtd">
<svg version="1.1" id="Layer_1" xmlns="http://www.w3.org/2000/svg" xmlns:xlink="http://www.w3.org/1999/xlink" x="0px" y="0px"
	 width="136.905px" height="139px" viewBox="0 0 136.905 139" enable-background="new 0 0 136.905 139" xml:space="preserve">
<polygon fill="#F3931F" points="52.48,-128.036 79.66,-128.036 84.55,-141.522 47.591,-141.522 "/>
<path fill="#F3931F" d="M32.296-128.036l17.334,40.074c3.727-3.179,8.373-5.301,13.484-5.913l-12.387-34.163l-4.89-13.485
	L32.296-128.036z"/>
<path fill="#F3931F" d="M86.307-141.522l-4.889,13.486L69.037-93.9c5.118,0.578,9.779,2.671,13.526,5.823l17.281-39.959
	L86.307-141.522z"/>
<path fill="#F8B51A" stroke="#F7A63B" stroke-width="3" stroke-miterlimit="10" d="M66.07-46.745
	c12.386,0,22.424-10.039,22.424-22.421c0-6.136-2.468-11.688-6.458-15.738c-0.192-0.194-0.399-0.376-0.598-0.565
	c-0.2-0.187-0.403-0.372-0.605-0.552c-3.439-3.012-7.793-5.003-12.602-5.461c-0.267-0.024-0.54-0.024-0.809-0.041
	c-0.269-0.015-0.537-0.035-0.809-0.041c-0.181-0.002-0.358-0.027-0.541-0.027c-0.238,0-0.469,0.027-0.706,0.037
	c-0.272,0.006-0.541,0.023-0.811,0.039c-0.268,0.018-0.542,0.018-0.807,0.044c-4.803,0.495-9.14,2.521-12.556,5.561
	c-0.205,0.181-0.41,0.362-0.606,0.552c-0.2,0.191-0.4,0.381-0.593,0.581c-3.921,4.037-6.345,9.538-6.345,15.611
	C43.647-56.784,53.687-46.745,66.07-46.745z"/>
<g>
	<path fill="#AB690F" d="M63.594-79.043h3.43v12.238h6.007v2.869h-9.437V-79.043z"/>
</g>
<line fill="none" stroke="#F5953B" stroke-width="3" stroke-miterlimit="10" x1="65.5" y1="-92" x2="65.5" y2="-84"/>
<line fill="none" stroke="#F5953B" stroke-width="3" stroke-miterlimit="10" x1="65.5" y1="-55" x2="65.5" y2="-47"/>
<line fill="none" stroke="#F5953B" stroke-width="3" stroke-miterlimit="10" x1="51" y1="-67.5" x2="45" y2="-67.5"/>
<line fill="none" stroke="#F5953B" stroke-width="3" stroke-miterlimit="10" x1="87" y1="-67.5" x2="81" y2="-67.5"/>
<g>
	<defs>
		<circle id="SVGID_1_" cx="262.238" cy="37.237" r="14.738"/>
	</defs>
	<use xlink:href="#SVGID_1_"  overflow="visible" fill="#F67373"/>
	<clipPath id="SVGID_2_">
		<use xlink:href="#SVGID_1_"  overflow="visible"/>
	</clipPath>
	<circle clip-path="url(#SVGID_2_)" fill="#F5595A" cx="262.356" cy="37.119" r="12.437"/>
</g>
<g>
	<g>
		<path fill="#F93F45" d="M260.998,28.88h2.795v9.973h4.895v2.338h-7.689V28.88z"/>
	</g>
</g>
<linearGradient id="SVGID_3_" gradientUnits="userSpaceOnUse" x1="248.3714" y1="39.3764" x2="295.1464" y2="120.3931">
	<stop  offset="0" style="stop-color:#F6C480"/>
	<stop  offset="0.26" style="stop-color:#F4BA75"/>
	<stop  offset="1" style="stop-color:#F0A25A"/>
</linearGradient>
<path fill="url(#SVGID_3_)" d="M303.009,93.745c-5.222,30.027-21.202,12.866-8.074,16.148c2.936,0.734,1.215,4.069,1.215,4.069
	l-1.887,6.941h-31.257c-1.101,0-1.468-2.202-1.468-2.202l-0.184-8.624c-20.368-28.809-4.954-32.479-4.954-32.479V38.982h0.007
	c0.084-4.342,1.938-6.514,6.074-6.514c5.446,0,6.015,5.164,6.07,6.514c0.007,0.114,0.007,0.202,0.007,0.257v6.36
	c0.059,4.947-0.077,13.531-0.048,14.016c0.206,3.356,1.851,2.396,1.851,2.396c7.34-2.018,10.81,4.027,10.81,4.027
	c6.606-3.67,12.439,2.351,12.439,2.351l2.424,3.705C300.44,69.891,305.945,76.863,303.009,93.745z"/>
<path fill="#EFCE4A" d="M104.93,97.288H33.657c-1.473,0-2.667-1.194-2.667-2.667V52.381h76.606v42.241
	C107.597,96.094,106.403,97.288,104.93,97.288z"/>
<path fill="#EABA17" d="M65.357,40.494v-7.9c0-1.473-1.194-2.667-2.667-2.667H33.657c-1.473,0-2.667,1.194-2.667,2.667v6.579v13.208
	h76.606v-9.221c0-1.473-1.194-2.667-2.667-2.667H65.357z"/>
<g>
	<rect x="57" y="64" fill="#FFFFFF" width="25" height="23"/>
	<path fill="#69BA57" d="M69.294,56.326c-10.222,0-18.509,8.287-18.509,18.509s8.287,18.509,18.509,18.509
		c10.223,0,18.509-8.287,18.509-18.509S79.516,56.326,69.294,56.326z M65.899,84.342l-8.15-8.15l2.716-2.716l5.433,5.433
		l12.224-12.224l2.716,2.716L65.899,84.342z"/>
</g>
<path fill="none" stroke="#F8B51A" stroke-width="4" stroke-miterlimit="10" d="M66.071-155.997
	c-35.575,0-64.405,28.841-64.405,64.405c0,35.575,28.831,64.405,64.405,64.405c35.565,0,64.405-28.831,64.405-64.405
	C130.476-127.156,101.635-155.997,66.071-155.997z M66.274-29.682c-34.423,0-62.337-27.914-62.337-62.347
	c0-34.423,27.914-62.337,62.337-62.337c34.434,0,62.347,27.914,62.347,62.337C128.622-57.596,100.708-29.682,66.274-29.682z"/>
<path fill="none" stroke="#69BA57" stroke-width="4" stroke-miterlimit="10" d="M69,5.522c-35.575,0-64.405,28.841-64.405,64.405
	c0,35.575,28.831,64.405,64.405,64.405c35.565,0,64.405-28.831,64.405-64.405C133.405,34.363,104.565,5.522,69,5.522z
	 M69.204,131.837c-34.423,0-62.337-27.914-62.337-62.347c0-34.423,27.914-62.337,62.337-62.337
	c34.434,0,62.347,27.914,62.347,62.337C131.551,103.923,103.637,131.837,69.204,131.837z"/>
<path fill="none" stroke="#F7AF69" stroke-width="4" stroke-miterlimit="10" d="M273.219,6.921
	c-35.575,0-64.405,28.841-64.405,64.405c0,35.575,28.831,64.405,64.405,64.405c35.565,0,64.405-28.831,64.405-64.405
	C337.624,35.761,308.783,6.921,273.219,6.921z M273.422,133.235c-34.423,0-62.337-27.914-62.337-62.347
	c0-34.423,27.914-62.337,62.337-62.337c34.434,0,62.347,27.914,62.347,62.337C335.77,105.321,307.856,133.235,273.422,133.235z"/>
<path fill="none" stroke="#1A6EAE" stroke-width="4" stroke-miterlimit="10" d="M277.323-157.127
	c-35.575,0-64.405,28.841-64.405,64.405c0,35.575,28.831,64.405,64.405,64.405c35.565,0,64.405-28.831,64.405-64.405
	C341.728-128.286,312.887-157.127,277.323-157.127z M277.526-30.812c-34.423,0-62.337-27.914-62.337-62.347
	c0-34.423,27.914-62.337,62.337-62.337c34.434,0,62.347,27.914,62.347,62.337C339.874-58.726,311.96-30.812,277.526-30.812z"/>
<path fill="#14A6C8" d="M301.839-132.67c-0.811-0.497-1.865-0.245-2.36,0.561c-0.497,0.808-0.245,1.863,0.561,2.36
	c12.285,7.565,19.62,20.677,19.62,35.079c0,3.546-0.465,7.096-1.381,10.553c-0.242,0.914,0.304,1.854,1.22,2.098
	c0.146,0.038,0.295,0.057,0.439,0.057c0.76,0,1.455-0.508,1.657-1.276c0.993-3.743,1.496-7.589,1.496-11.431
	C323.091-110.271,315.147-124.478,301.839-132.67z"/>
<path fill="#1598C3" d="M294.223-56.62c-5,2.069-10.292,3.119-15.732,3.119c-11.541,0-22.624-4.896-30.41-13.435
	c-0.638-0.7-1.721-0.75-2.424-0.111c-0.7,0.638-0.75,1.724-0.111,2.424c8.434,9.248,20.442,14.553,32.945,14.553
	c5.892,0,11.627-1.137,17.044-3.381c0.875-0.362,1.292-1.365,0.93-2.242C296.103-56.567,295.098-56.982,294.223-56.62z"/>
<path fill="#385997" d="M268.687-134.66c0.921-0.226,1.484-1.154,1.259-2.074c-0.223-0.919-1.156-1.479-2.072-1.259
	c-18.883,4.614-32.487,20.746-33.856,40.143c-0.067,0.945,0.645,1.765,1.59,1.83c0.041,0.003,0.082,0.005,0.122,0.005
	c0.894,0,1.645-0.69,1.71-1.595C238.704-115.511,251.26-130.403,268.687-134.66z"/>
<circle fill="#385997" cx="278.492" cy="-137.554" r="10.292"/>
<circle fill="#1598C3" cx="240.754" cy="-74.086" r="10.292"/>
<circle fill="#14A6C8" cx="316.229" cy="-74.086" r="10.292"/>
<path fill="#F8453F" d="M118.906,286.54c-1.027-1.313-3.919-2.132-6.197-2.591c-0.036-0.122-0.071-0.256-0.113-0.387
	c-2.15-6.727-12.896-20.96-12.896-20.96s-1.432-5.862-6.176-0.6L84.74,273h-0.006l-0.039-0.025l-0.006-0.03l0.027-0.017l-0.11,0.041
	l-0.012-0.011l-0.068,0.084l-0.024,0.032l-0.238,0.008L84,273.09v0.03v0.003l0.166,0.08l0.091,0.03l-0.046,0.128l-0.104,0.012
	L84,273.382V273h0.273L84,273.465v0.003l0.059,0.006l0.01,0.006l-0.007,0.003L84,273.362v-0.303l0,0v0.377l0.021-0.003L84,273.429
	v-0.003l0.05-0.006l0.055-0.542L84,272.864v-0.021l3.275-14.591l22.621,0.871l0.068-0.123c0,0,0,0,0.003,0
	c0.08,0,0.905-0.428,1.941-1.187c2.534-1.852,6.328-5.201,3.624-7.396l-4.526,3.437l-27.154-3.359
	c-4.857-0.604-5.848,7.084-5.848,7.084L72.38,273h-0.021c0,0-11.81,0.636-20.147,0.764c-7.364,0.116-8.323,4.713-8.448,5.77
	l-0.393-0.036c1.471-5.923-4.401-9.812-4.907-9.996c-1.161-0.423-2.403-0.66-3.344-0.755c-5.139-0.515-7.12,3.402-8.12,6.615v-0.137
	c0,0-1.688-0.992-2.781,1.638l0.408,0.17l-2.375-0.322c0,0-2.941-0.304-2.227,4.964c0,0,1.168,0.828,2.6,1.435
	c0,0.003,0.009,0.245,0.012,0.242c1.536,1.26,5.211,3.648,8.638,3.648h0.003c0.018,0,0.027-0.221,0.027-0.221l58.717-0.929
	l-1.614-0.274c1.67-1.468,6.92-9.943,8.647-12.754c0.003-0.003,0.468-0.018,0.471-0.021L98,272.792v0.003l9.508,14.683
	c0,0,2.534,1.521,4.267,0.521h0.003c0.009,0,0.015-0.143,0.024-0.149C115.547,288.056,119.972,287.901,118.906,286.54z
	 M83.969,273.492v0.03l-0.006-0.003L83.969,273.492z M83.668,274.111h-0.003v-0.003l0.006-0.018v-0.006l-0.006-0.009l0.003-0.042
	h0.003l0.003,0.006l0.009,0.021l0.003,0.009l-0.009,0.024l0.006,0.009l0.009-0.009l0.006,0.015l-0.027,0.006L83.668,274.111z
	 M83.704,274.126v0.003h-0.003l-0.006,0.003h-0.003l0.003-0.006l0.015-0.018l-0.015,0.006v-0.003l0.015-0.003h0.003L83.704,274.126z
	 M83.969,274.531l-0.054,0.054l0.027,0.021l0.027,0.042v0.003l-0.06,0.018l-0.042,0.06l0.006-0.08l0.003-0.018l-0.009,0.018
	l0.009-0.063l-0.006,0.021l0.003-0.021l-0.006,0.021l0.024-0.128l0.015-0.048v-0.006l0.003-0.003v-0.009l0.003-0.006v0.009
	l0.024-0.009v-0.018l0.003,0.003v0.006l0.003,0.006v0.003h-0.006l-0.003,0.033l0.006-0.009l0.018-0.009v0.009l-0.027,0.042
	l-0.003,0.006l0.006-0.039l-0.021,0.024l0.018,0.045l0.039,0.018V274.531z M83.918,274.382v-0.006l0.003-0.003L83.918,274.382z
	 M83.981,274.076v0.006l-0.003,0.012l-0.003,0.018l-0.003,0.003v0.021h-0.003v0.14l-0.003,0.018l0.003,0.003v0.003l-0.003,0.018
	l-0.003,0.048l0.006,0.003v0.018l-0.003,0.021l0.003,0.006l-0.009-0.003v-0.018l0.003-0.027l-0.006-0.006l-0.009-0.003v-0.003
	l-0.006-0.003v-0.003l-0.009-0.009l-0.006,0.018h-0.003l-0.003,0.003v-0.003l0.003-0.018l0.003-0.003v-0.009l0.003-0.015v-0.009
	l0.006-0.039l0.003-0.024v-0.009l0.006-0.024l0.003-0.012v-0.003l0.003-0.015l0.003-0.009v-0.009l0.003-0.006v-0.003l0.003-0.012
	v-0.003l0.003-0.012v-0.003l0.003-0.006v-0.042l-0.006,0.003h-0.003l-0.012-0.003l-0.068-0.009l-0.048-0.009l-0.066-0.012h-0.009
	l-0.009-0.003l-0.003,0.003l-0.024-0.003l0.003-0.003l-0.018-0.003h0.256v-0.009h0.003v0.003h0.003v0.006h0.006v0.006h0.003
	l-0.003,0.021v0.003l0.012-0.012l-0.003,0.018h0.006L83.981,274.076z M83.99,274.049v-0.015h-0.009v-0.003l-0.006-0.006
	l-0.006-0.003h-0.003l0.003-0.033v-0.009l0.015-0.003l0.009-0.006v0.009l0.003-0.003l0.003-0.006l-0.006,0.063h0.009L83.99,274.049z
	 M84.038,273.831l-0.03,0.11l0.033-0.131L84.038,273.831z M84.061,273.736l-0.045,0.009l-0.027,0.009l-0.003,0.003v0.003
	l-0.009,0.012l-0.009,0.015v-0.033l-0.009,0.024v-0.042h-0.003l0.006-0.03l0.006,0.009v-0.057l-0.003-0.003h-0.003l0.006-0.006
	v-0.024l0.009,0.021l0.03-0.003v0.027l0.015,0.003l0.042,0.063H84.061z"/>
<g>
	<path fill="#1C1C1C" d="M42.453,261.293l1.325-2.198c0.128-0.201,0.251-0.381,0.387-0.583l-0.002-0.014l-1.859,0.211l-0.057-0.504
		l2.618-0.297l0.037,0.391l-1.308,2.168c-0.12,0.207-0.242,0.395-0.378,0.589l0.001,0.015l2.008-0.228l0.056,0.496l-2.787,0.315
		L42.453,261.293z"/>
</g>
<g>
	<path fill="#1C1C1C" d="M50.709,246.632l1.856-2.699c0.179-0.248,0.352-0.47,0.541-0.718l-0.002-0.018l-2.555,0.289l-0.069-0.612
		l3.598-0.407l0.044,0.477l-1.831,2.662c-0.169,0.254-0.341,0.484-0.53,0.725l0.002,0.018l2.759-0.313l0.068,0.604l-3.831,0.434
		L50.709,246.632z"/>
</g>
<g>
	<path fill="#1C1C1C" d="M46.061,254.751l1.881-1.745c0.18-0.158,0.348-0.296,0.533-0.453l0.003-0.014l-1.845-0.313l0.084-0.5
		l2.598,0.44l-0.072,0.386l-1.856,1.721c-0.173,0.166-0.342,0.311-0.527,0.461l-0.002,0.015l1.992,0.337l-0.083,0.493L46,255.11
		L46.061,254.751z"/>
</g>
<g>
	<path fill="#1C1C1C" d="M54.269,242.027l2.87-1.583c0.271-0.14,0.523-0.261,0.805-0.397l0.006-0.017l-2.413-0.886l0.212-0.578
		l3.398,1.246l-0.173,0.445l-2.83,1.561c-0.266,0.152-0.521,0.28-0.799,0.41l-0.006,0.016l2.606,0.957l-0.209,0.57l-3.62-1.328
		L54.269,242.027z"/>
</g>
<path fill="none" stroke="#F8453F" stroke-width="4" stroke-miterlimit="10" d="M69.5,201.007
	c-35.575,0-64.405,28.841-64.405,64.405c0,35.575,28.831,64.405,64.405,64.405c35.565,0,64.405-28.831,64.405-64.405
	C133.905,229.848,105.065,201.007,69.5,201.007z M69.704,327.322c-34.423,0-62.337-27.914-62.337-62.347
	c0-34.423,27.914-62.337,62.337-62.337c34.434,0,62.347,27.914,62.347,62.337C132.051,299.408,104.137,327.322,69.704,327.322z"/>
<g>
</g>
<g>
</g>
<g>
</g>
<g>
</g>
<g>
</g>
<g>
</g>
</svg>
