<?xml version="1.0" encoding="utf-8"?>
<!-- Generator: Adobe Illustrator 17.0.0, SVG Export Plug-In . SVG Version: 6.00 Build 0)  -->
<!DOCTYPE svg PUBLIC "-//W3C//DTD SVG 1.1//EN" "http://www.w3.org/Graphics/SVG/1.1/DTD/svg11.dtd">
<svg version="1.1" id="Layer_1" xmlns="http://www.w3.org/2000/svg" xmlns:xlink="http://www.w3.org/1999/xlink" x="0px" y="0px"
	 width="136.905px" height="139px" viewBox="0 0 136.905 139" enable-background="new 0 0 136.905 139" xml:space="preserve">
<polygon fill="#F3931F" points="-155.52,33.964 -128.34,33.964 -123.45,20.478 -160.409,20.478 "/>
<path fill="#F3931F" d="M-175.704,33.964l17.334,40.074c3.727-3.179,8.373-5.301,13.484-5.913l-12.387-34.163l-4.89-13.485
	L-175.704,33.964z"/>
<path fill="#F3931F" d="M-121.693,20.478l-4.889,13.486l-12.38,34.136c5.118,0.578,9.779,2.671,13.526,5.823l17.281-39.959
	L-121.693,20.478z"/>
<path fill="#F8B51A" stroke="#F7A63B" stroke-width="3" stroke-miterlimit="10" d="M-141.93,115.255
	c12.386,0,22.425-10.039,22.425-22.421c0-6.136-2.468-11.688-6.458-15.738c-0.192-0.194-0.399-0.376-0.598-0.565
	c-0.2-0.187-0.403-0.372-0.605-0.552c-3.439-3.012-7.792-5.003-12.602-5.461c-0.267-0.024-0.54-0.024-0.809-0.041
	c-0.269-0.015-0.537-0.035-0.809-0.041c-0.181-0.002-0.358-0.027-0.541-0.027c-0.238,0-0.469,0.027-0.706,0.037
	c-0.272,0.006-0.541,0.023-0.811,0.039c-0.268,0.018-0.542,0.018-0.807,0.044c-4.803,0.495-9.14,2.521-12.556,5.561
	c-0.205,0.181-0.41,0.362-0.606,0.552c-0.2,0.191-0.4,0.381-0.593,0.581c-3.921,4.037-6.345,9.538-6.345,15.611
	C-164.353,105.216-154.313,115.255-141.93,115.255z"/>
<g>
	<path fill="#AB690F" d="M-144.406,82.957h3.43v12.238h6.007v2.869h-9.437V82.957z"/>
</g>
<line fill="none" stroke="#F5953B" stroke-width="3" stroke-miterlimit="10" x1="-142.5" y1="70" x2="-142.5" y2="78"/>
<line fill="none" stroke="#F5953B" stroke-width="3" stroke-miterlimit="10" x1="-142.5" y1="107" x2="-142.5" y2="115"/>
<line fill="none" stroke="#F5953B" stroke-width="3" stroke-miterlimit="10" x1="-157" y1="94.5" x2="-163" y2="94.5"/>
<line fill="none" stroke="#F5953B" stroke-width="3" stroke-miterlimit="10" x1="-121" y1="94.5" x2="-127" y2="94.5"/>
<g>
	<g>
		<circle id="SVGID_1_" fill="#F67373" cx="54.238" cy="199.237" r="14.738"/>
	</g>
	<g>
		<defs>
			<circle id="SVGID_2_" cx="54.238" cy="199.237" r="14.738"/>
		</defs>
		<clipPath id="SVGID_3_">
			<use xlink:href="#SVGID_2_"  overflow="visible"/>
		</clipPath>
		<circle clip-path="url(#SVGID_3_)" fill="#F5595A" cx="54.356" cy="199.119" r="12.437"/>
	</g>
</g>
<g>
	<g>
		<path fill="#F93F45" d="M52.998,190.88h2.795v9.973h4.895v2.338h-7.689L52.998,190.88L52.998,190.88z"/>
	</g>
</g>
<linearGradient id="SVGID_4_" gradientUnits="userSpaceOnUse" x1="88.0318" y1="-232.3368" x2="134.8065" y2="-313.3529" gradientTransform="matrix(1 0 0 -1 -47.66 -30.96)">
	<stop  offset="0" style="stop-color:#F6C480"/>
	<stop  offset="0.26" style="stop-color:#F4BA75"/>
	<stop  offset="1" style="stop-color:#F0A25A"/>
</linearGradient>
<path fill="url(#SVGID_4_)" d="M95.009,255.745c-5.222,30.027-21.202,12.866-8.074,16.148c2.936,0.734,1.215,4.069,1.215,4.069
	l-1.887,6.941H55.006c-1.101,0-1.468-2.202-1.468-2.202l-0.183-8.624c-20.368-28.809-4.954-32.479-4.954-32.479v-38.616h0.007
	c0.084-4.342,1.938-6.514,6.074-6.514c5.446,0,6.015,5.164,6.07,6.514c0.007,0.114,0.007,0.202,0.007,0.257v6.36
	c0.059,4.947-0.077,13.531-0.048,14.016c0.206,3.356,1.851,2.396,1.851,2.396c7.34-2.018,10.81,4.027,10.81,4.027
	c6.606-3.67,12.439,2.351,12.439,2.351l2.424,3.705C92.44,231.891,97.945,238.863,95.009,255.745z"/>
<path fill="#EFCE4A" d="M-103.07,259.288h-71.273c-1.473,0-2.667-1.194-2.667-2.667V214.38h76.606v42.241
	C-100.403,258.094-101.597,259.288-103.07,259.288z"/>
<path fill="#EABA17" d="M-142.643,202.494v-7.9c0-1.473-1.194-2.667-2.667-2.667h-29.033c-1.473,0-2.667,1.194-2.667,2.667v6.579
	v13.208h76.606v-9.221c0-1.473-1.194-2.667-2.667-2.667L-142.643,202.494L-142.643,202.494z"/>
<g>
	<rect x="-151" y="226" fill="#FFFFFF" width="25" height="23"/>
	<path fill="#69BA57" d="M-138.706,218.326c-10.222,0-18.509,8.287-18.509,18.509s8.287,18.509,18.509,18.509
		c10.223,0,18.509-8.287,18.509-18.509S-128.484,218.326-138.706,218.326z M-142.101,246.342l-8.15-8.15l2.716-2.716l5.433,5.433
		l12.224-12.224l2.716,2.716L-142.101,246.342z"/>
</g>
<path fill="none" stroke="#F8B51A" stroke-width="4" stroke-miterlimit="10" d="M-141.929,6.003
	c-35.575,0-64.405,28.841-64.405,64.405c0,35.575,28.831,64.405,64.405,64.405c35.565,0,64.405-28.831,64.405-64.405
	C-77.524,34.844-106.365,6.003-141.929,6.003z M-141.726,132.318c-34.423,0-62.337-27.914-62.337-62.347
	c0-34.423,27.914-62.337,62.337-62.337c34.434,0,62.347,27.914,62.347,62.337C-79.378,104.404-107.292,132.318-141.726,132.318z"/>
<path fill="none" stroke="#69BA57" stroke-width="4" stroke-miterlimit="10" d="M-139,167.522
	c-35.575,0-64.405,28.841-64.405,64.405c0,35.575,28.831,64.405,64.405,64.405c35.565,0,64.405-28.831,64.405-64.405
	C-74.595,196.363-103.435,167.522-139,167.522z M-138.796,293.837c-34.423,0-62.337-27.914-62.337-62.347
	c0-34.423,27.914-62.337,62.337-62.337c34.434,0,62.347,27.914,62.347,62.337C-76.449,265.923-104.363,293.837-138.796,293.837z"/>
<path fill="none" stroke="#F7AF69" stroke-width="4" stroke-miterlimit="10" d="M65.219,168.921
	c-35.575,0-64.405,28.841-64.405,64.405c0,35.575,28.831,64.405,64.405,64.405c35.565,0,64.405-28.831,64.405-64.405
	C129.624,197.761,100.783,168.921,65.219,168.921z M65.422,295.235c-34.423,0-62.337-27.914-62.337-62.347
	c0-34.423,27.914-62.337,62.337-62.337c34.434,0,62.347,27.914,62.347,62.337C127.77,267.321,99.856,295.235,65.422,295.235z"/>
<path fill="none" stroke="#1A6EAE" stroke-width="4" stroke-miterlimit="10" d="M69.323,4.873
	c-35.575,0-64.405,28.841-64.405,64.405c0,35.575,28.831,64.405,64.405,64.405c35.565,0,64.405-28.831,64.405-64.405
	C133.728,33.714,104.887,4.873,69.323,4.873z M69.526,131.188c-34.423,0-62.337-27.914-62.337-62.347
	c0-34.423,27.914-62.337,62.337-62.337c34.434,0,62.347,27.914,62.347,62.337C131.874,103.274,103.96,131.188,69.526,131.188z"/>
<path fill="#DD4B39" d="M93.839,29.33c-0.811-0.497-1.865-0.245-2.36,0.561c-0.497,0.808-0.245,1.863,0.561,2.36
	c12.285,7.565,19.62,20.677,19.62,35.079c0,3.546-0.465,7.096-1.381,10.553c-0.242,0.914,0.304,1.854,1.22,2.098
	c0.146,0.038,0.295,0.057,0.439,0.057c0.76,0,1.455-0.508,1.657-1.276c0.993-3.743,1.496-7.589,1.496-11.431
	C115.091,51.729,107.147,37.522,93.839,29.33z"/>
<path fill="#1598C3" d="M86.223,105.38c-5,2.069-10.292,3.119-15.732,3.119c-11.541,0-22.624-4.896-30.41-13.435
	c-0.638-0.7-1.721-0.75-2.424-0.111c-0.7,0.638-0.75,1.724-0.111,2.424c8.434,9.248,20.442,14.553,32.945,14.553
	c5.892,0,11.627-1.137,17.044-3.381c0.875-0.362,1.292-1.365,0.93-2.242C88.103,105.433,87.098,105.018,86.223,105.38z"/>
<path fill="#385997" d="M60.687,27.34c0.921-0.226,1.484-1.154,1.259-2.074c-0.223-0.919-1.156-1.479-2.072-1.259
	C40.991,28.621,27.386,44.753,26.017,64.15c-0.067,0.945,0.645,1.765,1.59,1.83c0.041,0.003,0.082,0.005,0.122,0.005
	c0.894,0,1.645-0.69,1.71-1.595C30.704,46.489,43.26,31.597,60.687,27.34z"/>
<circle fill="#385997" cx="70.492" cy="24.446" r="10.292"/>
<circle fill="#1598C3" cx="32.754" cy="87.914" r="10.292"/>
<circle fill="#DD4B39" cx="108.229" cy="87.914" r="10.292"/>
<path fill="#F8453F" d="M-89.094,448.54c-1.027-1.313-3.919-2.132-6.197-2.591c-0.036-0.122-0.071-0.256-0.113-0.387
	c-2.15-6.727-12.896-20.96-12.896-20.96s-1.432-5.862-6.176-0.6L-123.26,435h-0.006l-0.039-0.025l-0.006-0.03l0.027-0.017
	l-0.11,0.041l-0.012-0.011l-0.068,0.084l-0.024,0.032l-0.238,0.008L-124,435.09v0.03v0.003l0.166,0.08l0.091,0.03l-0.046,0.128
	l-0.104,0.012l-0.107,0.009V435h0.273l-0.273,0.465v0.003l0.059,0.006l0.01,0.006l-0.007,0.003l-0.063-0.121v-0.303l0,0v0.377
	l0.021-0.003l-0.021-0.003v-0.003l0.05-0.006l0.055-0.542l-0.105-0.015v-0.021l3.275-14.591l22.621,0.871l0.068-0.123
	c0,0,0,0,0.003,0c0.08,0,0.905-0.428,1.941-1.187c2.534-1.852,6.328-5.201,3.624-7.396l-4.526,3.437l-27.154-3.359
	c-4.857-0.604-5.848,7.084-5.848,7.084L-135.62,435h-0.021c0,0-11.81,0.636-20.147,0.764c-7.364,0.116-8.323,4.713-8.448,5.77
	l-0.393-0.036c1.471-5.923-4.401-9.812-4.907-9.996c-1.161-0.423-2.403-0.66-3.344-0.755c-5.139-0.515-7.12,3.402-8.12,6.615v-0.137
	c0,0-1.688-0.992-2.781,1.638l0.408,0.17l-2.375-0.322c0,0-2.941-0.304-2.227,4.964c0,0,1.168,0.828,2.6,1.435
	c0,0.003,0.009,0.245,0.012,0.242c1.536,1.26,5.211,3.648,8.638,3.648h0.003c0.018,0,0.027-0.221,0.027-0.221l58.717-0.929
	l-1.614-0.274c1.67-1.468,6.92-9.943,8.647-12.754c0.003-0.003,0.468-0.018,0.471-0.021l0.474-0.009v0.003l9.508,14.683
	c0,0,2.534,1.521,4.267,0.521h0.003c0.009,0,0.015-0.143,0.024-0.149C-92.453,450.056-88.028,449.901-89.094,448.54z
	 M-124.031,435.492v0.03l-0.006-0.003L-124.031,435.492z M-124.332,436.111h-0.003v-0.003l0.006-0.018v-0.006l-0.006-0.009
	l0.003-0.042h0.003l0.003,0.006l0.009,0.021l0.003,0.009l-0.009,0.024l0.006,0.009l0.009-0.009l0.006,0.015l-0.027,0.006
	L-124.332,436.111z M-124.296,436.126v0.003h-0.003l-0.006,0.003h-0.003l0.003-0.006l0.015-0.018l-0.015,0.006v-0.003l0.015-0.003
	h0.003L-124.296,436.126z M-124.031,436.531l-0.054,0.054l0.027,0.021l0.027,0.042v0.003l-0.06,0.018l-0.042,0.06l0.006-0.08
	l0.003-0.018l-0.009,0.018l0.009-0.063l-0.006,0.021l0.003-0.021l-0.006,0.021l0.024-0.128l0.015-0.048v-0.006l0.003-0.003v-0.009
	l0.003-0.006v0.009l0.024-0.009v-0.018l0.003,0.003v0.006l0.003,0.006v0.003h-0.006l-0.003,0.033l0.006-0.009l0.018-0.009v0.009
	l-0.027,0.042l-0.003,0.006l0.006-0.039l-0.021,0.024l0.018,0.045l0.039,0.018C-124.031,436.527-124.031,436.531-124.031,436.531z
	 M-124.082,436.382v-0.006l0.003-0.003L-124.082,436.382z M-124.019,436.076v0.006l-0.003,0.012l-0.003,0.018l-0.003,0.003v0.021
	h-0.003v0.14l-0.003,0.018l0.003,0.003v0.003l-0.003,0.018l-0.003,0.048l0.006,0.003v0.018l-0.003,0.021l0.003,0.006l-0.009-0.003
	v-0.018l0.003-0.027l-0.006-0.006l-0.009-0.003v-0.003l-0.006-0.003v-0.003l-0.009-0.009l-0.006,0.018h-0.003l-0.003,0.003v-0.003
	l0.003-0.018l0.003-0.003v-0.009l0.003-0.015v-0.009l0.006-0.039l0.003-0.024v-0.009l0.006-0.024l0.003-0.012v-0.003l0.003-0.015
	l0.003-0.009v-0.009l0.003-0.006v-0.003l0.003-0.012v-0.003l0.003-0.012v-0.003l0.003-0.006v-0.042l-0.006,0.003h-0.003
	l-0.012-0.003l-0.068-0.009l-0.048-0.009l-0.066-0.012h-0.009l-0.009-0.003l-0.003,0.003l-0.024-0.003l0.003-0.003l-0.018-0.003
	h0.256v-0.009h0.003v0.003h0.003v0.006h0.006v0.006h0.003l-0.003,0.021v0.003l0.012-0.012l-0.003,0.018h0.006L-124.019,436.076z
	 M-124.01,436.049v-0.015h-0.009v-0.003l-0.006-0.006l-0.006-0.003h-0.003l0.003-0.033v-0.009l0.015-0.003l0.009-0.006v0.009
	l0.003-0.003l0.003-0.006l-0.006,0.063h0.009L-124.01,436.049z M-123.962,435.831l-0.03,0.11l0.033-0.131L-123.962,435.831z
	 M-123.939,435.736l-0.045,0.009l-0.027,0.009l-0.003,0.003v0.003l-0.009,0.012l-0.009,0.015v-0.033l-0.009,0.024v-0.042h-0.003
	l0.006-0.03l0.006,0.009v-0.057l-0.003-0.003h-0.003l0.006-0.006v-0.024l0.009,0.021l0.03-0.003v0.027l0.015,0.003l0.042,0.063
	H-123.939z"/>
<g>
	<path fill="#1C1C1C" d="M-165.547,423.293l1.325-2.198c0.128-0.201,0.251-0.381,0.387-0.583l-0.002-0.014l-1.859,0.211
		l-0.057-0.504l2.618-0.297l0.037,0.391l-1.308,2.168c-0.12,0.207-0.242,0.395-0.378,0.589l0.001,0.015l2.008-0.228l0.056,0.496
		l-2.787,0.315L-165.547,423.293z"/>
</g>
<g>
	<path fill="#1C1C1C" d="M-157.291,408.632l1.856-2.699c0.179-0.248,0.352-0.47,0.541-0.718l-0.002-0.018l-2.555,0.289l-0.069-0.612
		l3.598-0.407l0.044,0.477l-1.831,2.662c-0.169,0.254-0.341,0.484-0.53,0.725l0.002,0.018l2.759-0.313l0.068,0.604l-3.831,0.434
		L-157.291,408.632z"/>
</g>
<g>
	<path fill="#1C1C1C" d="M-161.939,416.751l1.881-1.745c0.18-0.158,0.348-0.296,0.533-0.453l0.003-0.014l-1.845-0.313l0.084-0.5
		l2.598,0.44l-0.072,0.386l-1.856,1.721c-0.173,0.166-0.342,0.311-0.527,0.461l-0.002,0.015l1.992,0.337l-0.083,0.493L-162,417.11
		L-161.939,416.751z"/>
</g>
<g>
	<path fill="#1C1C1C" d="M-153.731,404.027l2.87-1.583c0.271-0.14,0.523-0.261,0.805-0.397l0.006-0.017l-2.413-0.886l0.212-0.578
		l3.398,1.246l-0.173,0.445l-2.83,1.561c-0.266,0.152-0.521,0.28-0.799,0.41l-0.006,0.016l2.606,0.957l-0.209,0.57l-3.62-1.328
		L-153.731,404.027z"/>
</g>
<path fill="none" stroke="#F8453F" stroke-width="4" stroke-miterlimit="10" d="M-138.5,363.007
	c-35.575,0-64.405,28.841-64.405,64.405c0,35.575,28.831,64.405,64.405,64.405c35.565,0,64.405-28.831,64.405-64.405
	C-74.095,391.848-102.935,363.007-138.5,363.007z M-138.296,489.322c-34.423,0-62.337-27.914-62.337-62.347
	c0-34.423,27.914-62.337,62.337-62.337c34.434,0,62.347,27.914,62.347,62.337C-75.949,461.408-103.863,489.322-138.296,489.322z"/>
</svg>
