<?xml version="1.0" encoding="utf-8"?>
<!-- Generator: Adobe Illustrator 17.0.0, SVG Export Plug-In . SVG Version: 6.00 Build 0)  -->
<!DOCTYPE svg PUBLIC "-//W3C//DTD SVG 1.1//EN" "http://www.w3.org/Graphics/SVG/1.1/DTD/svg11.dtd">
<svg version="1.1" xmlns="http://www.w3.org/2000/svg" xmlns:xlink="http://www.w3.org/1999/xlink" x="0px" y="0px" width="69.5px"
	 height="67.5px" viewBox="-5.5 -3.5 69.5 67.5" enable-background="new -5.5 -3.5 69.5 67.5" xml:space="preserve">
<g id="Layer_2" display="none">
	<rect x="-5.5" y="-3.5" display="inline" width="69.5" height="70"/>
</g>
<g id="Layer_1">
	<path fill="#FFFFFF" d="M48.276,4.859l0.002-0.002c0.003-0.002,0.006-0.003,0.01-0.005c0.203-0.14,0.438-0.233,0.682-0.3
		c0.075-0.022,0.145-0.033,0.22-0.046c0.186-0.033,0.376-0.045,0.572-0.032c0.072,0.003,0.141,0,0.214,0.011
		c0.038,0.005,0.073-0.001,0.109,0.006c0.223,0.041,0.434,0.112,0.629,0.207c0.021,0.008,0.036,0.025,0.057,0.036
		c0.214,0.111,0.399,0.254,0.564,0.417c0.023,0.023,0.056,0.034,0.079,0.058L61.63,16.352c0.782,0.853,0.65,2.08-0.298,2.742
		c-0.947,0.661-2.35,0.504-3.134-0.351l-5.508-6.007c0.075,7.807-2.448,15.165-2.571,15.512
		C43.087,51.057,19.712,64.959-1.989,59.239c-1.074-0.283-1.752-1.2-1.638-2.138c0.012-0.1,0.033-0.2,0.062-0.3
		c0.319-1.033,1.539-1.616,2.727-1.304c19.33,5.095,40.259-7.637,46.674-28.442c0.034-0.095,2.646-7.696,2.395-15.184l-5.769,7.533
		c-0.677,0.883-2.057,1.092-3.084,0.471c-1.029-0.621-1.308-1.838-0.637-2.724l9.093-11.875C47.959,5.116,48.109,4.977,48.276,4.859
		z"/>
</g>
</svg>
