<?xml version="1.0" encoding="utf-8"?>
<!-- Generator: Adobe Illustrator 17.0.0, SVG Export Plug-In . SVG Version: 6.00 Build 0)  -->
<!DOCTYPE svg PUBLIC "-//W3C//DTD SVG 1.1//EN" "http://www.w3.org/Graphics/SVG/1.1/DTD/svg11.dtd">
<svg version="1.1" id="Layer_1" xmlns="http://www.w3.org/2000/svg" xmlns:xlink="http://www.w3.org/1999/xlink" x="0px" y="0px"
	 width="100px" height="100px" viewBox="0 0 100 100" enable-background="new 0 0 100 100" xml:space="preserve">
<g>
	<path fill="#7215FF" d="M60.981,69.907v4.229c0,0.627-0.462,1.355-1.034,1.61c-2.219,0.987-8.272,3.009-20.642,3.009
		c-12.37,0-18.423-2.021-20.642-3.009c-0.573-0.255-1.034-0.983-1.034-1.61v-4.229c0-6.337,4.825-11.594,10.981-12.298
		c0.187-0.021,0.464,0.059,0.617,0.169c2.839,2.055,6.314,3.281,10.078,3.281c3.764,0,7.24-1.226,10.078-3.281
		c0.152-0.11,0.43-0.19,0.617-0.169C56.156,58.313,60.981,63.57,60.981,69.907z M26.477,43.807c0-7.085,5.744-12.829,12.829-12.829
		s12.829,5.744,12.829,12.829c0,7.085-5.744,12.829-12.829,12.829S26.477,50.892,26.477,43.807z M33.235,48.898
		c0.584,1.93,3.083,3.38,6.08,3.38c2.996,0,5.496-1.451,6.08-3.38H33.235z M78.676,21.246H57.442c-1.46,0-2.654,1.194-2.654,2.654
		v12.413c0,1.445,1.182,2.628,2.628,2.628h0.027v3.539c0,0.729,0.832,1.145,1.416,0.708l5.426-4.07
		c0.13-0.097,0.369-0.177,0.531-0.177h13.861c1.46,0,2.654-1.194,2.654-2.654V23.9C81.33,22.44,80.136,21.246,78.676,21.246z"/>
</g>
<path fill="#7215FF" stroke="#7215FF" stroke-width="4" stroke-miterlimit="10" d="M50,3.084C24.085,3.084,3.084,24.093,3.084,50
	c0,25.915,21.002,46.916,46.916,46.916c25.907,0,46.916-21.002,46.916-46.916C96.916,24.093,75.907,3.084,50,3.084z M50.148,95.098
	c-25.075,0-45.409-20.334-45.409-45.417c0-25.075,20.334-45.409,45.409-45.409c25.083,0,45.417,20.334,45.417,45.409
	C95.565,74.764,75.231,95.098,50.148,95.098z"/>
<text transform="matrix(1 0 0 1 62.6269 33.2471)" fill="#FFFFFF" font-family="'MyriadPro-Bold'" font-size="11.2866">PL</text>
</svg>
