<?xml version="1.0" encoding="utf-8"?>
<!-- Generator: Adobe Illustrator 17.0.0, SVG Export Plug-In . SVG Version: 6.00 Build 0)  -->
<!DOCTYPE svg PUBLIC "-//W3C//DTD SVG 1.1//EN" "http://www.w3.org/Graphics/SVG/1.1/DTD/svg11.dtd">
<svg version="1.1" id="Layer_1" xmlns="http://www.w3.org/2000/svg" xmlns:xlink="http://www.w3.org/1999/xlink" x="0px" y="0px"
	 width="64px" height="64px" viewBox="0 0 64 64" enable-background="new 0 0 64 64" xml:space="preserve">
<path fill="#FFFFFF" d="M47.686,2.834l0.002-0.002c0.003-0.002,0.006-0.004,0.009-0.006c0.184-0.164,0.407-0.284,0.641-0.38
	c0.072-0.031,0.14-0.051,0.213-0.072c0.181-0.055,0.368-0.09,0.564-0.101c0.072-0.006,0.14-0.017,0.214-0.015
	c0.038,0,0.072-0.01,0.109-0.008c0.226,0.013,0.444,0.059,0.65,0.13c0.022,0.006,0.039,0.021,0.061,0.029
	c0.226,0.084,0.427,0.204,0.61,0.346c0.026,0.02,0.06,0.027,0.085,0.048l11.487,9.828c0.88,0.752,0.897,1.986,0.035,2.758
	c-0.861,0.77-2.272,0.784-3.153,0.031l-6.194-5.298c1.018,7.74-0.599,15.349-0.678,15.709C48.115,49.321,26.59,65.945,4.357,62.888
	c-1.101-0.152-1.884-0.98-1.884-1.924c0-0.101,0.009-0.202,0.026-0.305c0.192-1.064,1.333-1.79,2.55-1.624
	C24.852,61.758,44.09,46.59,47.945,25.163c0.023-0.098,1.697-7.96,0.543-15.362l-4.817,8.175c-0.566,0.958-1.91,1.332-3.005,0.84
	c-1.096-0.492-1.521-1.666-0.962-2.627l7.592-12.886C47.402,3.128,47.533,2.971,47.686,2.834z"/>
</svg>
