<?xml version="1.0" encoding="utf-8"?>
<!-- Generator: Adobe Illustrator 17.0.0, SVG Export Plug-In . SVG Version: 6.00 Build 0)  -->
<!DOCTYPE svg PUBLIC "-//W3C//DTD SVG 1.1//EN" "http://www.w3.org/Graphics/SVG/1.1/DTD/svg11.dtd">
<svg version="1.1" id="Layer_1" xmlns="http://www.w3.org/2000/svg" xmlns:xlink="http://www.w3.org/1999/xlink" x="0px" y="0px"
	 width="136.905px" height="139px" viewBox="0 0 136.905 139" enable-background="new 0 0 136.905 139" xml:space="preserve">
<polygon fill="#F3931F" points="51.48,-323.036 78.66,-323.036 83.55,-336.522 46.591,-336.522 "/>
<path fill="#F3931F" d="M31.296-323.036l17.334,40.074c3.727-3.179,8.373-5.301,13.484-5.913l-12.387-34.163l-4.89-13.485
	L31.296-323.036z"/>
<path fill="#F3931F" d="M85.307-336.522l-4.889,13.486L68.037-288.9c5.118,0.578,9.779,2.671,13.526,5.823l17.281-39.959
	L85.307-336.522z"/>
<path fill="#F8B51A" stroke="#F7A63B" stroke-width="3" stroke-miterlimit="10" d="M65.07-241.745
	c12.386,0,22.424-10.039,22.424-22.421c0-6.136-2.468-11.688-6.458-15.738c-0.192-0.194-0.399-0.376-0.598-0.565
	c-0.2-0.187-0.403-0.372-0.605-0.552c-3.439-3.012-7.793-5.003-12.602-5.461c-0.267-0.024-0.54-0.024-0.809-0.041
	c-0.269-0.015-0.537-0.035-0.809-0.041c-0.181-0.002-0.358-0.027-0.541-0.027c-0.238,0-0.469,0.027-0.706,0.037
	c-0.272,0.006-0.541,0.023-0.811,0.039c-0.268,0.018-0.542,0.018-0.807,0.044c-4.803,0.495-9.14,2.521-12.556,5.561
	c-0.205,0.181-0.41,0.362-0.606,0.552c-0.2,0.191-0.4,0.381-0.593,0.581c-3.921,4.037-6.345,9.538-6.345,15.611
	C42.647-251.784,52.687-241.745,65.07-241.745z"/>
<g>
	<path fill="#AB690F" d="M62.594-274.043h3.43v12.238h6.007v2.869h-9.437V-274.043z"/>
</g>
<line fill="none" stroke="#F5953B" stroke-width="3" stroke-miterlimit="10" x1="64.5" y1="-287" x2="64.5" y2="-279"/>
<line fill="none" stroke="#F5953B" stroke-width="3" stroke-miterlimit="10" x1="64.5" y1="-250" x2="64.5" y2="-242"/>
<line fill="none" stroke="#F5953B" stroke-width="3" stroke-miterlimit="10" x1="50" y1="-262.5" x2="44" y2="-262.5"/>
<line fill="none" stroke="#F5953B" stroke-width="3" stroke-miterlimit="10" x1="86" y1="-262.5" x2="80" y2="-262.5"/>
<g>
	<defs>
		<circle id="SVGID_1_" cx="261.238" cy="-157.763" r="14.738"/>
	</defs>
	<use xlink:href="#SVGID_1_"  overflow="visible" fill="#F67373"/>
	<clipPath id="SVGID_2_">
		<use xlink:href="#SVGID_1_"  overflow="visible"/>
	</clipPath>
	<circle clip-path="url(#SVGID_2_)" fill="#F5595A" cx="261.356" cy="-157.881" r="12.437"/>
</g>
<g>
	<g>
		<path fill="#F93F45" d="M259.998-166.12h2.795v9.973h4.895v2.338h-7.689V-166.12z"/>
	</g>
</g>
<linearGradient id="SVGID_3_" gradientUnits="userSpaceOnUse" x1="247.3714" y1="-155.6236" x2="294.1464" y2="-74.6069">
	<stop  offset="0" style="stop-color:#F6C480"/>
	<stop  offset="0.26" style="stop-color:#F4BA75"/>
	<stop  offset="1" style="stop-color:#F0A25A"/>
</linearGradient>
<path fill="url(#SVGID_3_)" d="M302.009-101.255c-5.222,30.027-21.202,12.866-8.074,16.148c2.936,0.734,1.215,4.069,1.215,4.069
	l-1.887,6.941h-31.257c-1.101,0-1.468-2.202-1.468-2.202l-0.184-8.624c-20.368-28.809-4.954-32.479-4.954-32.479v-38.616h0.007
	c0.084-4.342,1.938-6.514,6.074-6.514c5.446,0,6.015,5.164,6.07,6.514c0.007,0.114,0.007,0.202,0.007,0.257v6.36
	c0.059,4.947-0.077,13.531-0.048,14.016c0.206,3.356,1.851,2.396,1.851,2.396c7.34-2.018,10.81,4.027,10.81,4.027
	c6.606-3.67,12.439,2.351,12.439,2.351l2.424,3.705C299.44-125.109,304.945-118.137,302.009-101.255z"/>
<path fill="#EFCE4A" d="M103.93-97.712H32.657c-1.473,0-2.667-1.194-2.667-2.667v-42.241h76.606v42.241
	C106.597-98.906,105.403-97.712,103.93-97.712z"/>
<path fill="#EABA17" d="M64.357-154.506v-7.9c0-1.473-1.194-2.667-2.667-2.667H32.657c-1.473,0-2.667,1.194-2.667,2.667v6.579
	v13.208h76.606v-9.221c0-1.473-1.194-2.667-2.667-2.667H64.357z"/>
<g>
	<rect x="56" y="-131" fill="#FFFFFF" width="25" height="23"/>
	<path fill="#69BA57" d="M68.294-138.674c-10.222,0-18.509,8.287-18.509,18.509s8.287,18.509,18.509,18.509
		c10.223,0,18.509-8.287,18.509-18.509S78.516-138.674,68.294-138.674z M64.899-110.658l-8.15-8.15l2.716-2.716l5.433,5.433
		l12.224-12.224l2.716,2.716L64.899-110.658z"/>
</g>
<path fill="none" stroke="#F8B51A" stroke-width="4" stroke-miterlimit="10" d="M65.071-350.997
	c-35.575,0-64.405,28.841-64.405,64.405c0,35.575,28.831,64.405,64.405,64.405c35.565,0,64.405-28.831,64.405-64.405
	C129.476-322.156,100.635-350.997,65.071-350.997z M65.274-224.682c-34.423,0-62.337-27.914-62.337-62.347
	c0-34.423,27.914-62.337,62.337-62.337c34.434,0,62.347,27.914,62.347,62.337C127.622-252.596,99.708-224.682,65.274-224.682z"/>
<path fill="none" stroke="#69BA57" stroke-width="4" stroke-miterlimit="10" d="M68-189.478c-35.575,0-64.405,28.841-64.405,64.405
	c0,35.575,28.831,64.405,64.405,64.405c35.565,0,64.405-28.831,64.405-64.405C132.405-160.637,103.565-189.478,68-189.478z
	 M68.204-63.163c-34.423,0-62.337-27.914-62.337-62.347c0-34.423,27.914-62.337,62.337-62.337c34.434,0,62.347,27.914,62.347,62.337
	C130.551-91.077,102.637-63.163,68.204-63.163z"/>
<path fill="none" stroke="#F7AF69" stroke-width="4" stroke-miterlimit="10" d="M272.219-188.079
	c-35.575,0-64.405,28.841-64.405,64.405c0,35.575,28.831,64.405,64.405,64.405c35.565,0,64.405-28.831,64.405-64.405
	C336.624-159.239,307.783-188.079,272.219-188.079z M272.422-61.765c-34.423,0-62.337-27.914-62.337-62.347
	c0-34.423,27.914-62.337,62.337-62.337c34.434,0,62.347,27.914,62.347,62.337C334.77-89.679,306.856-61.765,272.422-61.765z"/>
<path fill="none" stroke="#1A6EAE" stroke-width="4" stroke-miterlimit="10" d="M276.323-352.127
	c-35.575,0-64.405,28.841-64.405,64.405c0,35.575,28.831,64.405,64.405,64.405c35.565,0,64.405-28.831,64.405-64.405
	C340.728-323.286,311.887-352.127,276.323-352.127z M276.526-225.812c-34.423,0-62.337-27.914-62.337-62.347
	c0-34.423,27.914-62.337,62.337-62.337c34.434,0,62.347,27.914,62.347,62.337C338.874-253.726,310.96-225.812,276.526-225.812z"/>
<path fill="#14A6C8" d="M300.839-327.67c-0.811-0.497-1.865-0.245-2.36,0.561c-0.497,0.808-0.245,1.863,0.561,2.36
	c12.285,7.565,19.62,20.677,19.62,35.079c0,3.546-0.465,7.096-1.381,10.553c-0.242,0.914,0.304,1.854,1.22,2.098
	c0.146,0.038,0.295,0.057,0.439,0.057c0.76,0,1.455-0.508,1.657-1.276c0.993-3.743,1.496-7.589,1.496-11.431
	C322.091-305.271,314.147-319.478,300.839-327.67z"/>
<path fill="#1598C3" d="M293.223-251.62c-5,2.069-10.292,3.119-15.732,3.119c-11.541,0-22.624-4.896-30.41-13.435
	c-0.638-0.7-1.721-0.75-2.424-0.111c-0.7,0.638-0.75,1.724-0.111,2.424c8.434,9.247,20.442,14.553,32.945,14.553
	c5.892,0,11.627-1.137,17.044-3.381c0.875-0.362,1.292-1.365,0.93-2.242C295.103-251.567,294.098-251.982,293.223-251.62z"/>
<path fill="#385997" d="M267.687-329.66c0.921-0.226,1.484-1.154,1.259-2.074c-0.223-0.919-1.156-1.479-2.072-1.259
	c-18.883,4.614-32.487,20.746-33.856,40.143c-0.067,0.945,0.645,1.765,1.59,1.83c0.041,0.003,0.082,0.005,0.122,0.005
	c0.894,0,1.645-0.69,1.71-1.595C237.704-310.511,250.26-325.403,267.687-329.66z"/>
<circle fill="#385997" cx="277.492" cy="-332.554" r="10.292"/>
<circle fill="#1598C3" cx="239.754" cy="-269.086" r="10.292"/>
<circle fill="#14A6C8" cx="315.229" cy="-269.086" r="10.292"/>
<path fill="#F8453F" d="M117.906,90.54c-1.027-1.313-3.919-2.132-6.197-2.591c-0.036-0.122-0.071-0.256-0.113-0.387
	c-2.15-6.727-12.896-20.96-12.896-20.96s-1.432-5.862-6.176-0.6L83.74,77h-0.006l-0.039-0.025l-0.006-0.03l0.027-0.017l-0.11,0.041
	l-0.012-0.011l-0.068,0.084l-0.024,0.032l-0.238,0.008L83,77.09v0.03v0.003l0.166,0.08l0.091,0.03l-0.046,0.128l-0.104,0.012
	L83,77.382V77h0.273L83,77.465v0.003l0.059,0.006l0.01,0.006l-0.007,0.003L83,77.362v-0.303l0,0v0.377l0.021-0.003L83,77.429v-0.003
	l0.05-0.006l0.055-0.542L83,76.864v-0.021l3.275-14.591l22.621,0.871L108.964,63c0,0,0,0,0.003,0c0.08,0,0.905-0.428,1.941-1.187
	c2.534-1.852,6.328-5.201,3.624-7.396l-4.526,3.437l-27.154-3.359c-4.857-0.604-5.848,7.084-5.848,7.084L71.38,77h-0.021
	c0,0-11.81,0.636-20.147,0.764c-7.364,0.116-8.323,4.713-8.448,5.77l-0.393-0.036c1.471-5.923-4.401-9.812-4.907-9.996
	c-1.161-0.423-2.403-0.66-3.344-0.755C28.981,72.232,27,76.149,26,79.362v-0.137c0,0-1.688-0.992-2.781,1.638l0.408,0.17
	l-2.375-0.322c0,0-2.941-0.304-2.227,4.964c0,0,1.168,0.828,2.6,1.435c0,0.003,0.009,0.245,0.012,0.242
	C23.174,88.611,26.849,91,30.276,91h0.003c0.018,0,0.027-0.221,0.027-0.221l58.717-0.929l-1.614-0.274
	c1.67-1.468,6.92-9.943,8.647-12.754c0.003-0.003,0.468-0.018,0.471-0.021L97,76.792v0.003l9.508,14.683
	c0,0,2.534,1.521,4.267,0.521h0.003c0.009,0,0.015-0.143,0.024-0.149C114.547,92.056,118.972,91.901,117.906,90.54z M82.969,77.492
	v0.03l-0.006-0.003L82.969,77.492z M82.668,78.111h-0.003v-0.003l0.006-0.018v-0.006l-0.006-0.009l0.003-0.042h0.003l0.003,0.006
	l0.009,0.021l0.003,0.009l-0.009,0.024l0.006,0.009l0.009-0.009l0.006,0.015l-0.027,0.006L82.668,78.111z M82.704,78.126v0.003
	h-0.003l-0.006,0.003h-0.003l0.003-0.006l0.015-0.018l-0.015,0.006v-0.003l0.015-0.003h0.003L82.704,78.126z M82.969,78.531
	l-0.054,0.054l0.027,0.021l0.027,0.042v0.003l-0.06,0.018l-0.042,0.06l0.006-0.08l0.003-0.018l-0.009,0.018l0.009-0.063
	l-0.006,0.021l0.003-0.021l-0.006,0.021l0.024-0.128l0.015-0.048v-0.006l0.003-0.003v-0.009l0.003-0.006v0.009l0.024-0.009v-0.018
	l0.003,0.003v0.006l0.003,0.006v0.003h-0.006l-0.003,0.033l0.006-0.009l0.018-0.009v0.009l-0.027,0.042l-0.003,0.006l0.006-0.039
	l-0.021,0.024l0.018,0.045l0.039,0.018V78.531z M82.918,78.382v-0.006l0.003-0.003L82.918,78.382z M82.981,78.076v0.006
	l-0.003,0.012l-0.003,0.018l-0.003,0.003v0.021h-0.003v0.14l-0.003,0.018l0.003,0.003v0.003l-0.003,0.018l-0.003,0.048l0.006,0.003
	v0.018l-0.003,0.021l0.003,0.006l-0.009-0.003v-0.018l0.003-0.027l-0.006-0.006l-0.009-0.003v-0.003l-0.006-0.003v-0.003
	l-0.009-0.009l-0.006,0.018h-0.003l-0.003,0.003v-0.003l0.003-0.018l0.003-0.003v-0.009l0.003-0.015v-0.009l0.006-0.039l0.003-0.024
	V78.23l0.006-0.024l0.003-0.012v-0.003l0.003-0.015l0.003-0.009v-0.009l0.003-0.006V78.15l0.003-0.012v-0.003l0.003-0.012V78.12
	l0.003-0.006v-0.042l-0.006,0.003h-0.003l-0.012-0.003l-0.068-0.009l-0.048-0.009l-0.066-0.012h-0.009l-0.009-0.003l-0.003,0.003
	l-0.024-0.003l0.003-0.003l-0.018-0.003h0.256v-0.009h0.003v0.003h0.003v0.006h0.006v0.006h0.003l-0.003,0.021v0.003l0.012-0.012
	l-0.003,0.018h0.006L82.981,78.076z M82.99,78.049v-0.015h-0.009v-0.003l-0.006-0.006l-0.006-0.003h-0.003l0.003-0.033V77.98
	l0.015-0.003l0.009-0.006v0.009l0.003-0.003l0.003-0.006l-0.006,0.063h0.009L82.99,78.049z M83.038,77.831l-0.03,0.11l0.033-0.131
	L83.038,77.831z M83.061,77.736l-0.045,0.009l-0.027,0.009l-0.003,0.003v0.003l-0.009,0.012l-0.009,0.015v-0.033l-0.009,0.024
	v-0.042h-0.003l0.006-0.03l0.006,0.009v-0.057l-0.003-0.003h-0.003l0.006-0.006v-0.024l0.009,0.021l0.03-0.003v0.027l0.015,0.003
	l0.042,0.063H83.061z"/>
<g>
	<path fill="#1C1C1C" d="M41.453,65.293l1.325-2.198c0.128-0.201,0.251-0.381,0.387-0.583l-0.002-0.014l-1.859,0.211l-0.057-0.504
		l2.618-0.297l0.037,0.391l-1.308,2.168c-0.12,0.207-0.242,0.395-0.378,0.589l0.001,0.015l2.008-0.228l0.056,0.496l-2.787,0.315
		L41.453,65.293z"/>
</g>
<g>
	<path fill="#1C1C1C" d="M49.709,50.632l1.856-2.699c0.179-0.248,0.352-0.47,0.541-0.718l-0.002-0.018l-2.555,0.289l-0.069-0.612
		l3.598-0.407l0.044,0.477l-1.831,2.662c-0.169,0.254-0.341,0.484-0.53,0.725l0.002,0.018l2.759-0.313l0.068,0.604l-3.831,0.434
		L49.709,50.632z"/>
</g>
<g>
	<path fill="#1C1C1C" d="M45.061,58.751l1.881-1.745c0.18-0.158,0.348-0.296,0.533-0.453l0.003-0.014l-1.845-0.313l0.084-0.5
		l2.598,0.44l-0.072,0.386l-1.856,1.721c-0.173,0.166-0.342,0.311-0.527,0.461l-0.002,0.015l1.992,0.337l-0.083,0.493L45,59.11
		L45.061,58.751z"/>
</g>
<g>
	<path fill="#1C1C1C" d="M53.269,46.027l2.87-1.583c0.271-0.14,0.523-0.261,0.805-0.397l0.006-0.017l-2.413-0.886l0.212-0.578
		l3.398,1.246l-0.173,0.445l-2.83,1.561c-0.266,0.152-0.521,0.28-0.799,0.41l-0.006,0.016l2.606,0.957l-0.209,0.57l-3.62-1.328
		L53.269,46.027z"/>
</g>
<path fill="none" stroke="#F8453F" stroke-width="4" stroke-miterlimit="10" d="M68.5,5.007c-35.575,0-64.405,28.841-64.405,64.405
	c0,35.575,28.831,64.405,64.405,64.405c35.565,0,64.405-28.831,64.405-64.405C132.905,33.848,104.065,5.007,68.5,5.007z
	 M68.704,131.322c-34.423,0-62.337-27.914-62.337-62.347c0-34.423,27.914-62.337,62.337-62.337
	c34.434,0,62.347,27.914,62.347,62.337C131.051,103.408,103.137,131.322,68.704,131.322z"/>
<g>
</g>
<g>
</g>
<g>
</g>
<g>
</g>
<g>
</g>
<g>
</g>
</svg>
