<?xml version="1.0" encoding="utf-8"?>
<!-- Generator: Adobe Illustrator 17.0.0, SVG Export Plug-In . SVG Version: 6.00 Build 0)  -->
<!DOCTYPE svg PUBLIC "-//W3C//DTD SVG 1.1//EN" "http://www.w3.org/Graphics/SVG/1.1/DTD/svg11.dtd">
<svg version="1.1" xmlns="http://www.w3.org/2000/svg" xmlns:xlink="http://www.w3.org/1999/xlink" x="0px" y="0px" width="100px"
	 height="100px" viewBox="0 0 100 100" enable-background="new 0 0 100 100" xml:space="preserve">
<g id="Layer_2">
	<path fill="#FD0158" d="M94.67,91.21c0,2.74-3.44,4.96-7.67,4.96c-4.21,0-7.64-2.2-7.67-4.92c-2.43,0-4.55-1.12-5.7-2.79
		c-6.69,3.99-14.52,6.28-22.88,6.28C26.04,94.74,6.01,74.71,6.01,50c0-24.71,20.03-44.74,44.74-44.74C75.47,5.26,95.5,25.29,95.5,50
		c0,11.95-4.68,22.8-12.3,30.82c1.7,1.04,2.8,2.75,2.8,4.68c0,0.28-0.02,0.55-0.07,0.81c0.35-0.04,0.71-0.06,1.07-0.06
		C91.23,86.25,94.67,88.47,94.67,91.21z"/>
</g>
<g id="Layer_1">
	<g>
		<path fill="#C70158" d="M15.785,15.676c9.209-9.14,21.44-14.187,34.468-14.187s25.259,5.046,34.468,14.187
			c17.765,17.632,19.051,45.802,3.226,64.894c2.185,4.438,4.758,7.397,7.678,8.816c1.776,0.871,2.777,2.777,2.491,4.722
			c-0.306,1.966-1.817,3.486-3.798,3.79c-1.082,0.162-2.246,0.263-3.451,0.263l0,0c-5.983,0-12.272-2.047-17.52-5.634
			c-7.065,3.77-15.008,5.756-23.094,5.756c-13.028,0-25.259-5.026-34.468-14.166s-14.273-21.3-14.273-34.21
			S6.576,24.816,15.785,15.676z M19.686,80.225c8.168,8.107,19.031,12.565,30.568,12.565c7.719,0,15.294-2.047,21.89-5.898
			c0.429-0.243,0.919-0.385,1.389-0.385c0.592,0,1.205,0.203,1.695,0.567c6.248,4.803,12.538,5.513,15.294,5.573
			c-3.288-2.432-6.044-6.202-8.352-11.451c-0.429-0.973-0.245-2.108,0.47-2.918c15.11-16.943,14.314-42.762-1.817-58.773
			C72.654,11.4,61.791,6.941,50.254,6.941s-22.4,4.459-30.568,12.565C2.819,36.267,2.819,63.505,19.686,80.225z"/>
	</g>
</g>
<g id="Layer_3">
	<g>
		<path fill="#FF7498" d="M30.336,33.916h40.839c1.531,0,2.757,1.216,2.757,2.736s-1.225,2.736-2.757,2.736H30.336
			c-1.531,0-2.757-1.216-2.757-2.736S28.824,33.916,30.336,33.916z"/>
		<path fill="#FF7498" d="M30.336,47.15h40.839c1.531,0,2.757,1.216,2.757,2.736c0,1.52-1.225,2.736-2.757,2.736H30.336
			c-1.531,0-2.757-1.216-2.757-2.736C27.579,48.366,28.824,47.15,30.336,47.15z"/>
		<path fill="#FF7498" d="M30.336,60.384h40.839c1.531,0,2.757,1.216,2.757,2.736c0,1.52-1.225,2.736-2.757,2.736H30.336
			c-1.531,0-2.757-1.216-2.757-2.736C27.579,61.6,28.824,60.384,30.336,60.384z"/>
	</g>
	<g>
	</g>
	<g>
	</g>
	<g>
	</g>
	<g>
	</g>
	<g>
	</g>
	<g>
	</g>
</g>
</svg>
