<?xml version="1.0" encoding="utf-8"?>
<!-- Generator: Adobe Illustrator 17.0.0, SVG Export Plug-In . SVG Version: 6.00 Build 0)  -->
<!DOCTYPE svg PUBLIC "-//W3C//DTD SVG 1.1//EN" "http://www.w3.org/Graphics/SVG/1.1/DTD/svg11.dtd">
<svg version="1.1" id="Layer_1" xmlns="http://www.w3.org/2000/svg" xmlns:xlink="http://www.w3.org/1999/xlink" x="0px" y="0px"
	 width="302px" height="82.869px" viewBox="0 0 302 82.869" enable-background="new 0 0 302 82.869" xml:space="preserve">
<g>
	<defs>
		<circle id="XMLID_27_" cx="186.745" cy="43.112" r="38.757"/>
	</defs>
	<linearGradient id="XMLID_2_" gradientUnits="userSpaceOnUse" x1="147.9881" y1="43.1124" x2="225.5021" y2="43.1124">
		<stop  offset="0" style="stop-color:#F40E59"/>
		<stop  offset="1" style="stop-color:#C71B58"/>
	</linearGradient>
	<use xlink:href="#XMLID_27_"  overflow="visible" fill="url(#XMLID_2_)"/>
	<clipPath id="XMLID_3_">
		<use xlink:href="#XMLID_27_"  overflow="visible"/>
	</clipPath>
	<use xlink:href="#XMLID_27_"  overflow="visible" fill="none" stroke="#F64A6E" stroke-width="2" stroke-miterlimit="10"/>
</g>
<g>
	<path d="M3.353,16.003c2.319-0.387,5.355-0.718,9.22-0.718c4.748,0,8.226,1.104,10.434,3.092c2.043,1.767,3.258,4.472,3.258,7.784
		c0,3.367-0.994,6.018-2.871,7.949c-2.539,2.705-6.68,4.086-11.372,4.086c-1.436,0-2.761-0.056-3.864-0.331v14.905H3.353V16.003z
		 M8.156,33.945c1.049,0.276,2.373,0.387,3.975,0.387c5.797,0,9.33-2.816,9.33-7.95c0-4.913-3.479-7.287-8.778-7.287
		c-2.098,0-3.698,0.166-4.526,0.387V33.945z"/>
	<path d="M29.465,34.387c0-3.146-0.056-5.852-0.221-8.336h4.251l0.165,5.244h0.221c1.215-3.588,4.141-5.852,7.397-5.852
		c0.553,0,0.938,0.056,1.381,0.166v4.582c-0.497-0.11-0.994-0.166-1.656-0.166c-3.423,0-5.853,2.595-6.515,6.238
		c-0.11,0.663-0.221,1.436-0.221,2.264v14.243h-4.803V34.387z"/>
	<path d="M68.936,39.189c0,9.882-6.845,14.188-13.305,14.188c-7.231,0-12.808-5.3-12.808-13.746c0-8.943,5.853-14.188,13.25-14.188
		C63.747,25.443,68.936,31.02,68.936,39.189z M47.736,39.466c0,5.852,3.368,10.269,8.116,10.269c4.637,0,8.115-4.361,8.115-10.379
		c0-4.527-2.264-10.269-8.005-10.269C50.221,29.087,47.736,34.387,47.736,39.466z"/>
	<path d="M91.899,51.776c-1.27,0.663-4.085,1.546-7.674,1.546c-8.06,0-13.305-5.465-13.305-13.636
		c0-8.226,5.631-14.188,14.354-14.188c2.871,0,5.41,0.717,6.735,1.38l-1.104,3.754c-1.16-0.662-2.981-1.27-5.632-1.27
		c-6.128,0-9.44,4.526-9.44,10.103c0,6.183,3.976,9.992,9.275,9.992c2.76,0,4.582-0.718,5.962-1.325L91.899,51.776z"/>
	<path d="M95.376,34.387c0-3.146-0.056-5.852-0.221-8.336h4.251l0.165,5.244h0.221c1.215-3.588,4.141-5.852,7.397-5.852
		c0.553,0,0.939,0.056,1.381,0.166v4.582c-0.497-0.11-0.994-0.166-1.656-0.166c-3.423,0-5.852,2.595-6.515,6.238
		c-0.11,0.663-0.221,1.436-0.221,2.264v14.243h-4.803V34.387z"/>
	<path d="M125.738,52.771l-0.387-3.367h-0.165c-1.491,2.098-4.361,3.975-8.171,3.975c-5.41,0-8.17-3.81-8.17-7.674
		c0-6.459,5.741-9.992,16.064-9.938v-0.552c0-2.208-0.607-6.183-6.072-6.183c-2.484,0-5.079,0.772-6.956,1.987l-1.104-3.202
		c2.208-1.436,5.41-2.374,8.778-2.374c8.17,0,10.157,5.576,10.157,10.931v9.992c0,2.319,0.11,4.582,0.442,6.404H125.738z
		 M125.021,39.135c-5.3-0.11-11.317,0.828-11.317,6.018c0,3.146,2.099,4.637,4.582,4.637c3.479,0,5.687-2.208,6.46-4.472
		c0.165-0.496,0.275-1.049,0.275-1.546V39.135z"/>
	<path d="M134.68,47.802c1.436,0.938,3.976,1.933,6.404,1.933c3.533,0,5.189-1.767,5.189-3.975c0-2.319-1.38-3.589-4.969-4.914
		c-4.803-1.711-7.066-4.361-7.066-7.563c0-4.306,3.479-7.839,9.22-7.839c2.705,0,5.079,0.772,6.569,1.656l-1.215,3.533
		c-1.049-0.662-2.98-1.546-5.465-1.546c-2.871,0-4.472,1.656-4.472,3.644c0,2.208,1.601,3.202,5.079,4.527
		c4.637,1.767,7.011,4.085,7.011,8.06c0,4.692-3.644,8.005-9.992,8.005c-2.926,0-5.631-0.718-7.508-1.821L134.68,47.802z"/>
	<path d="M160.847,18.377v7.674h6.956v3.698h-6.956v14.409c0,3.313,0.938,5.189,3.644,5.189c1.27,0,2.208-0.166,2.815-0.331
		l0.221,3.644c-0.938,0.387-2.429,0.662-4.306,0.662c-2.264,0-4.085-0.718-5.245-2.042c-1.38-1.436-1.877-3.81-1.877-6.956V29.749
		h-4.14v-3.698h4.14v-6.404L160.847,18.377z"/>
	<path d="M176.469,18.543c0.055,1.656-1.159,2.98-3.092,2.98c-1.711,0-2.926-1.324-2.926-2.98c0-1.712,1.27-3.037,3.036-3.037
		C175.31,15.506,176.469,16.831,176.469,18.543z M171.059,52.771v-26.72h4.858v26.72H171.059z"/>
</g>
<g>
	<path d="M224.854,52.771l-0.497-2.705h-0.165c-1.767,2.153-4.527,3.313-7.729,3.313c-5.465,0-8.723-3.975-8.723-8.281
		c0-7.011,6.294-10.379,15.845-10.323v-0.387c0-1.436-0.773-3.478-4.913-3.478c-2.761,0-5.687,0.938-7.453,2.042l-1.546-5.41
		c1.877-1.049,5.576-2.374,10.489-2.374c8.999,0,11.869,5.3,11.869,11.648v9.386c0,2.595,0.11,5.079,0.387,6.569H224.854z
		 M223.86,40.018c-4.417-0.055-7.84,0.994-7.84,4.251c0,2.153,1.436,3.202,3.313,3.202c2.098,0,3.81-1.38,4.361-3.092
		c0.11-0.441,0.166-0.938,0.166-1.436V40.018z"/>
	<path d="M246.217,18.046v7.729h6.018v6.184h-6.018v9.771c0,3.257,0.772,4.747,3.313,4.747c1.049,0,1.877-0.11,2.484-0.221
		l0.055,6.349c-1.104,0.442-3.092,0.718-5.466,0.718c-2.705,0-4.968-0.938-6.293-2.318c-1.546-1.601-2.318-4.195-2.318-8.005V31.958
		h-3.589v-6.184h3.589v-5.852L246.217,18.046z"/>
	<path d="M261.895,41.95c0.275,3.478,3.698,5.134,7.618,5.134c2.87,0,5.189-0.386,7.453-1.104l1.104,5.686
		c-2.76,1.104-6.128,1.656-9.771,1.656c-9.164,0-14.408-5.3-14.408-13.746c0-6.846,4.25-14.409,13.636-14.409
		c8.723,0,12.035,6.791,12.035,13.471c0,1.436-0.166,2.705-0.276,3.313H261.895z M271.776,36.209c0-2.043-0.884-5.466-4.748-5.466
		c-3.533,0-4.969,3.202-5.189,5.466H271.776z"/>
	<path d="M283.202,34.663c0-3.975-0.11-6.569-0.221-8.889h7.232l0.276,4.969h0.221c1.38-3.92,4.692-5.576,7.287-5.576
		c0.772,0,1.159,0,1.767,0.11v7.895c-0.607-0.11-1.325-0.221-2.264-0.221c-3.092,0-5.189,1.656-5.741,4.251
		c-0.11,0.553-0.166,1.215-0.166,1.877v13.691h-8.392V34.663z"/>
</g>
<g>
	<path d="M182.459,15.562h8.446v30.143h14.796v7.066h-23.242V15.562z"/>
</g>
<g>
</g>
<g>
</g>
<g>
</g>
<g>
</g>
<g>
</g>
<g>
</g>
</svg>
