<?xml version="1.0" encoding="utf-8"?>
<!-- Generator: Adobe Illustrator 17.0.0, SVG Export Plug-In . SVG Version: 6.00 Build 0)  -->
<!DOCTYPE svg PUBLIC "-//W3C//DTD SVG 1.1//EN" "http://www.w3.org/Graphics/SVG/1.1/DTD/svg11.dtd">
<svg version="1.1" id="Capa_1" xmlns="http://www.w3.org/2000/svg" xmlns:xlink="http://www.w3.org/1999/xlink" x="0px" y="0px"
	 width="611.999px" height="612px" viewBox="0 0 611.999 612" enable-background="new 0 0 611.999 612" xml:space="preserve">
<g>
	<path fill="#7215FF" stroke="#7215FF" stroke-width="4" stroke-miterlimit="10" d="M378.94,441.24v28.379
		c0,4.206-3.097,9.095-6.94,10.805c-14.893,6.626-55.518,20.191-138.53,20.191c-83.013,0-123.637-13.565-138.531-20.191
		c-3.843-1.71-6.939-6.599-6.939-10.806V441.24c0-42.527,32.379-77.808,73.696-82.532c1.255-0.144,3.117,0.393,4.14,1.134
		c19.05,13.791,42.372,22.022,67.635,22.022c25.264,0,48.585-8.231,67.635-22.022c1.023-0.741,2.886-1.278,4.141-1.134
		C346.561,363.433,378.94,398.714,378.94,441.24z M147.376,266.083c0-47.549,38.546-86.095,86.095-86.095
		s86.095,38.546,86.095,86.095c0,47.548-38.546,86.095-86.095,86.095S147.376,313.63,147.376,266.083z M192.735,300.253
		c3.917,12.949,20.693,22.684,40.801,22.684s36.885-9.735,40.801-22.684H192.735z M497.691,114.675H355.19
		c-9.797,0-17.813,8.016-17.813,17.813v83.304c0,9.699,7.935,17.635,17.635,17.635h0.178v23.75c0,4.893,5.586,7.686,9.501,4.75
		l36.417-27.313c0.871-0.653,2.474-1.188,3.563-1.188h93.021c9.797,0,17.812-8.016,17.812-17.813v-83.126
		C515.504,122.691,507.488,114.675,497.691,114.675z"/>
</g>
<path fill="#7215FF" stroke="#7215FF" stroke-width="4" stroke-miterlimit="10" d="M306.246,8.077
	C140.93,8.077,6.957,142.101,6.957,307.366c0,165.316,133.977,299.289,299.289,299.289c165.27,0,299.289-133.977,299.289-299.289
	C605.535,142.096,471.511,8.077,306.246,8.077z M307.189,595.056c-159.963,0-289.679-129.716-289.679-289.725
	c0-159.963,129.716-289.679,289.679-289.679c160.014,0,289.725,129.716,289.725,289.679
	C596.919,465.34,467.203,595.056,307.189,595.056z"/>
<text transform="matrix(1 0 0 1 391.4995 200.5)" fill="#FFFFFF" font-family="'MyriadPro-Bold'" font-size="72">PL</text>
</svg>
