<?xml version="1.0" encoding="utf-8"?>
<!-- Generator: Adobe Illustrator 17.0.0, SVG Export Plug-In . SVG Version: 6.00 Build 0)  -->
<!DOCTYPE svg PUBLIC "-//W3C//DTD SVG 1.1//EN" "http://www.w3.org/Graphics/SVG/1.1/DTD/svg11.dtd">
<svg version="1.1" id="Layer_1" xmlns="http://www.w3.org/2000/svg" xmlns:xlink="http://www.w3.org/1999/xlink" x="0px" y="0px"
	 width="62.573px" height="27.975px" viewBox="0 0 62.573 27.975" enable-background="new 0 0 62.573 27.975" xml:space="preserve">
<g>
	<path fill="#7AC041" d="M63,5c0-2.761-2.239-5-5-5H11C8.239,0,6,2.239,6,5v14c0,2.761,2.239,5,5,5h47c2.761,0,5-2.239,5-5V5z"/>
</g>
<polygon fill="#7AC041" points="20.081,22.938 0.152,27.975 16,2.58 16,2.621 17.418,0.598 "/>
<g>
	<path fill="#FFFFFF" d="M19.577,6.448v3.628h3.517V6.448h2.129v9.441h-2.129v-3.95h-3.517v3.95h-2.143V6.448H19.577z"/>
	<path fill="#FFFFFF" d="M32.697,11.897h-3.475v2.241h3.881v1.751H27.08V6.448h5.827v1.751h-3.685v1.961h3.475V11.897z"/>
	<path fill="#FFFFFF" d="M34.557,6.448h2.143v7.648h3.754v1.793h-5.896V6.448z"/>
	<path fill="#FFFFFF" d="M41.71,6.574c0.658-0.111,1.583-0.195,2.886-0.195c1.316,0,2.255,0.252,2.885,0.756
		c0.603,0.477,1.009,1.261,1.009,2.186c0,0.924-0.308,1.709-0.868,2.241c-0.729,0.687-1.808,0.994-3.068,0.994
		c-0.279,0-0.532-0.014-0.728-0.042v3.376H41.71V6.574z M43.825,10.861c0.182,0.042,0.406,0.056,0.714,0.056
		c1.135,0,1.835-0.574,1.835-1.541c0-0.868-0.603-1.387-1.667-1.387c-0.434,0-0.729,0.042-0.882,0.084V10.861z"/>
	<path fill="#FFFFFF" d="M49.535,14.77c0-0.743,0.519-1.275,1.261-1.275s1.232,0.532,1.247,1.275c0,0.728-0.49,1.274-1.247,1.274
		S49.535,15.497,49.535,14.77z M49.997,12.794l-0.321-6.346h2.227l-0.308,6.346H49.997z"/>
</g>
<g>
</g>
<g>
</g>
<g>
</g>
<g>
</g>
<g>
</g>
<g>
</g>
</svg>
