<?xml version="1.0" encoding="utf-8"?>
<!-- Generator: Adobe Illustrator 17.0.0, SVG Export Plug-In . SVG Version: 6.00 Build 0)  -->
<!DOCTYPE svg PUBLIC "-//W3C//DTD SVG 1.1//EN" "http://www.w3.org/Graphics/SVG/1.1/DTD/svg11.dtd">
<svg version="1.1" id="Layer_1" xmlns="http://www.w3.org/2000/svg" xmlns:xlink="http://www.w3.org/1999/xlink" x="0px" y="0px"
	 width="371.345px" height="416.988px" viewBox="0 0 371.345 416.988" enable-background="new 0 0 371.345 416.988"
	 xml:space="preserve">
<g id="Like_2">
	<path fill="#FFDA44" stroke="#F4B500" stroke-width="4" stroke-miterlimit="10" d="M334.745,230.688
		c17.46,0.797,32.271-12.957,33.036-30.722s-11.512-33.736-28.985-34.504l-115.998-14.565c0,0,24.173-40.435,24.173-100.344
		c0-39.937-28.531-45.311-45.311-45.311c-13.2-0.005-16.754,25.571-16.754,25.571h-0.027c-2.989,16.4-6.881,30.722-20.405,57.091
		c-15.139,29.556-35.756,26.783-59.827,53.108c-4.248,4.636-9.956,12.288-15.519,21.704c-0.454,0.498-0.878,1.195-1.288,2.175
		c-0.496,1.168-1.09,1.978-1.613,3.058c-0.922,1.693-1.828,3.386-2.719,5.163c-14.898,14.898-38.107,13.375-47.991,13.375
		c-19.824,0-30.207,11.519-30.207,30.207L5.305,354.799c0,20.967,8.579,28.038,30.215,28.038h30.207
		c15.208,0,27.117,8.719,45.312,15.104c24.923,8.634,62.144,15.115,126.261,15.115c11.213,0,45.992,0.042,45.992,0.042
		c10.648,0,19.201-4.864,25.373-10.737c2.349-2.233,4.8-5.477,5.848-11.806c0.17-0.981,0.353-5.092,0.326-5.647
		c0.805-18.106-10.14-24.661-16.341-26.725c0.169-0.057,0.057-0.213,0.395-0.199l19.684,0.881
		c17.473,0.797,34.72-11.791,34.72-33.196c0-17.75-14.388-30.268-31.804-31.12l10.437,0.484
		c17.471,0.768,32.241-12.985,33.049-30.75C365.742,246.519,352.205,231.487,334.745,230.688z"/>
</g>
<g>
</g>
<g>
</g>
<g>
</g>
<g>
</g>
<g>
</g>
<g>
</g>
</svg>
