<?xml version="1.0" encoding="utf-8"?>
<!-- Generator: Adobe Illustrator 17.0.0, SVG Export Plug-In . SVG Version: 6.00 Build 0)  -->
<!DOCTYPE svg PUBLIC "-//W3C//DTD SVG 1.1//EN" "http://www.w3.org/Graphics/SVG/1.1/DTD/svg11.dtd">
<svg version="1.1" id="Layer_1" xmlns="http://www.w3.org/2000/svg" xmlns:xlink="http://www.w3.org/1999/xlink" x="0px" y="0px"
	 width="100px" height="100px" viewBox="0 0 100 100" enable-background="new 0 0 100 100" xml:space="preserve">
<g>
	<path fill="#6E1485" d="M60.725,69.865v4.14c0,0.614-0.452,1.327-1.012,1.576c-2.173,0.967-8.099,2.946-20.21,2.946
		c-12.111,0-18.037-1.979-20.21-2.946c-0.561-0.249-1.012-0.963-1.012-1.576v-4.14c0-6.204,4.724-11.351,10.751-12.041
		c0.183-0.021,0.455,0.057,0.604,0.165c2.779,2.012,6.182,3.213,9.867,3.213c3.686,0,7.088-1.201,9.867-3.213
		c0.149-0.108,0.421-0.186,0.604-0.165C56.002,58.514,60.725,63.661,60.725,69.865z M26.943,44.311c0-6.937,5.623-12.56,12.56-12.56
		s12.56,5.623,12.56,12.56c0,6.937-5.623,12.56-12.56,12.56S26.943,51.248,26.943,44.311z M33.56,49.296
		c0.571,1.889,3.019,3.309,5.952,3.309c2.933,0,5.381-1.42,5.952-3.309H33.56z M78.05,22.223H57.261
		c-1.429,0-2.599,1.169-2.599,2.599v12.153c0,1.415,1.158,2.573,2.573,2.573h0.026v3.465c0,0.714,0.815,1.121,1.386,0.693
		l5.313-3.985c0.127-0.095,0.361-0.173,0.52-0.173H78.05c1.429,0,2.599-1.169,2.599-2.599V24.821
		C80.649,23.392,79.479,22.223,78.05,22.223z"/>
</g>
<path fill="#6E1485" stroke="#6E1485" stroke-width="4" stroke-miterlimit="10" d="M49.696,2.858
	c-26.069,0-47.195,21.134-47.195,47.195c0,26.069,21.127,47.195,47.195,47.195c26.062,0,47.195-21.127,47.195-47.195
	C96.892,23.991,75.757,2.858,49.696,2.858z M49.845,95.42c-25.225,0-45.68-20.455-45.68-45.687c0-25.225,20.455-45.68,45.68-45.68
	c25.233,0,45.687,20.455,45.687,45.68C95.533,74.964,75.078,95.42,49.845,95.42z"/>
<text transform="matrix(1 0 0 1 62.0663 34.6293)" fill="#FFFFFF" font-family="'MyriadPro-Bold'" font-size="11.3538">PL</text>
</svg>
